<svg xmlns="http://www.w3.org/2000/svg" width="304.827" height="40" viewBox="0 0 304.827 40">
  <g id="Logo" transform="translate(-100.29 -100.103)">
    <path id="Path_1" data-name="Path 1" d="M391.73,101.075H386.9l-9.935,28.752-9.986-28.752h-4.618l13.068,38.459h3.083l10.632-31.772,10.874,31.772h5.1Zm-42.963,38.459h5.1l6.522-19.159h-4.923ZM145.017,120.083h4.923l6.7-19.16h-5.1ZM126.9,100.923l-10.645,31.772-10.861-31.772h-5.1l13.386,38.471H118.5l9.935-28.752,9.986,28.752h4.728l-13.178-38.471Zm52.145,0h-4.774v38.409h4.774Zm103.014,18.765c0,9.822-5.871,19.644-19.314,19.644H247.482V100.872h15.261C275.8,100.872,282.057,110.2,282.057,119.691Zm-4.774-.054c0-7.134-4.719-14.157-14.54-14.157H252.256v29.081h10.487C272.949,134.561,277.284,126.989,277.284,119.637Zm-64.1-2.359c-5.646-.933-10.412-2.14-10.386-6.309.029-4.664,5.253-6.585,10.136-6.585,4.28.054,8.715,1.591,10.779,4.938l3.635-2.249c-3.366-5.816-8.791-6.969-14.5-6.969-6.639,0-14.832,2.744-14.771,10.755-.048,7.791,7.129,9.493,14.529,10.645,5.756.877,11.124,2.249,11.041,7.023-.035,5.652-6.245,7.133-10.909,7.133-4.719,0-9.863-2.195-12.3-6.749l-3.965,2.3c2.924,6.42,9.383,8.889,16.186,8.889,7.352,0,15.6-2.8,15.708-11.414C228.417,120.021,220.855,118.484,213.181,117.277Zm123.059,2.909c0,11.574-8.425,19.916-20.028,19.916s-20.027-8.342-20.027-19.916,8.426-19.918,20.027-19.918S336.24,108.611,336.24,120.186Zm-5.083,0c0-9.09-6.437-15.25-14.945-15.25s-14.944,6.16-14.944,15.25,6.437,15.248,14.944,15.248S331.157,129.274,331.157,120.186Z" transform="translate(0)" fill="#fff"/>
  </g>
</svg>
